PathFileType	4	(X/Y/Z)	C:\Users\WrightLab\Desktop\Jo\P5V12.trc
DataRate	CameraRate	NumFrames	NumMarkers	Units	OrigDataRate	OrigDataStartFrame	OrigNumFrames
100.00	100.00	      7	19	mm	100.00	1819	      2078
Frame#	Time	Headset_Front			Headset_Back			Headset_Left			Headset_Right			Left_Shoulder			Right_Shoulder			Sternum			C7			Left Elbow			Right Elbow			Left Wrist			Right Wrist			Left ASIS			Right ASIS			S2			Left Knee			Right Knee			Left Ankle			Right Ankle			
		X1	Y1	Z1	X2	Y2	Z2	X3	Y3	Z3	X4	Y4	Z4	X5	Y5	Z5	X6	Y6	Z6	X7	Y7	Z7	X8	Y8	Z8	X9	Y9	Z9	X10	Y10	Z10	X11	Y11	Z11	X12	Y12	Z12	X13	Y13	Z13	X14	Y14	Z14	X15	Y15	Z15	X16	Y16	Z16	X17	Y17	Z17	X18	Y18	Z18	X19	Y19	Z19	

1819	18.180	-842.15546	1585.03381	-980.13464	-830.27521	1720.81775	-865.29834							-1072.37292	1490.25928	-920.31860	-689.23907	1445.07910	-928.25006	-964.26373	1514.30786	-695.95679	-850.51001	1345.64636	-1014.49670	-1209.82996	1226.65369	-948.41205	-636.50842	1231.89551	-517.14374	-1056.29285	1146.67163	-1078.72583	-427.58514	1120.09998	-602.84058	-1001.36072	905.75830	-925.93243	-765.30334	914.09149	-768.34009	-1054.11682	978.62732	-645.24890				-752.40686	474.67892	-683.04700	-1127.68616	78.93301	-927.32770	-840.93451	84.78281	-571.29486	
1820	18.190	-845.11029	1585.73047	-985.33887	-832.67139	1720.87451	-870.01868							-1073.77600	1489.65625	-925.59705				-965.65125	1513.82458	-701.41321	-851.91779	1345.33044	-1018.86993	-1210.75891	1225.68286	-954.06519	-637.47284	1231.95862	-521.90656	-1057.31262	1146.21765	-1083.50513	-428.44247	1120.55627	-607.25970	-1002.18250	905.02954	-930.96100	-766.10632	913.76190	-774.36945							-752.58783	474.81549	-687.50189	-1124.27197	75.50309	-938.95398	-840.84637	85.69429	-571.18481	
1821	18.200	-848.08679	1586.46094	-990.00323	-834.93481	1721.48096	-875.42139							-1075.33618	1489.05688	-930.74524	-694.38306	1447.02649	-943.58417	-967.01990	1513.18774	-706.10712	-853.24597	1345.28003	-1024.34717	-1211.75220	1224.71619	-959.46149	-637.95374	1231.94226	-528.24487	-1057.42114	1145.29163	-1088.46753	-429.94797	1120.24829	-614.16125	-1002.78632	904.91553	-936.72076	-767.28137	913.47552	-779.63690	-1058.06824	977.75366	-657.27911				-752.42126	474.36255	-692.15356	-1120.85278	74.81812	-949.50128	-841.04834	85.87160	-571.23145	
1822	18.210	-851.25848	1587.03943	-995.78131	-837.52142	1721.50867	-880.20288							-1077.08276	1488.28992	-935.88123	-696.70178	1446.59033	-948.15179	-968.66614	1512.32336	-711.33075	-854.32104	1344.99475	-1029.59753	-1212.73450	1223.84863	-964.71198	-639.22137	1231.82764	-533.56256	-1057.68384	1144.74329	-1094.79651	-431.08182	1120.72546	-619.84149	-1003.33893	904.48389	-942.15698	-768.38129	913.64203	-784.34937							-752.82831	473.72256	-697.35132	-1116.60400	72.28494	-956.63049	-841.29291	86.33703	-570.89380	
1823	18.220	-854.53137	1587.59448	-1000.84912	-840.11212	1721.94031	-885.00647							-1078.88245	1487.65381	-941.27393	-699.81281	1447.28162	-954.83026	-970.68268	1511.90576	-716.76678	-855.67950	1344.99585	-1035.04993	-1213.82092	1222.98132	-970.52557	-640.74731	1231.19629	-539.76740	-1058.74255	1143.76367	-1098.78625	-432.00754	1120.18384	-625.24420	-1004.12598	903.82031	-947.42957	-769.22021	913.39362	-790.05164	-1060.51892	975.51459	-668.93994				-752.71747	473.91653	-702.41235	-1113.50781	72.09214	-964.67896	-841.21344	87.11872	-570.76953	
1824	18.230	-858.00610	1588.11011	-1005.99304	-842.95807	1721.73083	-889.23755							-1080.85730	1487.01465	-946.22137				-973.09943	1511.65588	-722.32495	-857.18726	1345.43506	-1041.87195	-1215.18738	1221.89294	-975.92914	-642.15625	1230.72815	-545.25879	-1060.02783	1144.62537	-1105.11926	-433.83813	1118.76733	-632.14551	-1004.51459	903.51685	-953.23712	-770.17499	913.02118	-794.46149	-1062.66418	974.99292	-676.15320				-753.57166	472.98593	-707.10657	-1110.01807	69.38346	-971.85010	-841.14417	87.22836	-571.43640	
1825	18.240	-861.67157	1588.41443	-1011.31512	-845.88965	1722.06140	-894.36633							-1082.95313	1486.44458	-951.39508				-974.65894	1510.83447	-727.25397	-858.79132	1345.18262	-1046.38037	-1216.54688	1220.82996	-981.20428	-643.31647	1230.91418	-551.43536	-1060.39111	1144.36072	-1111.21521	-435.28674	1119.50220	-637.35938	-1005.07227	903.21552	-959.05597	-770.68475	913.30402	-801.11914							-753.22308	472.88513	-712.65948	-1107.21008	67.99199	-975.45563	-841.81073	87.16945	-572.56238	
